<svg xmlns="http://www.w3.org/2000/svg" xmlns:xlink="http://www.w3.org/1999/xlink" width="1080" zoomAndPan="magnify" viewBox="0 0 810 809.999993" height="1080" preserveAspectRatio="xMidYMid meet" version="1.0"><defs><g/><clipPath id="dfb7e21021"><path d="M 15.28125 3.226562 L 794.53125 3.226562 L 794.53125 678 L 15.28125 678 Z M 15.28125 3.226562 " clip-rule="nonzero"/></clipPath><clipPath id="678ebd445d"><path d="M 330 185 L 692 185 L 692 806.476562 L 330 806.476562 Z M 330 185 " clip-rule="nonzero"/></clipPath></defs><g clip-path="url(#dfb7e21021)"><path fill="#c1ff72" d="M 404.980469 3.226562 L 476.867188 127.667969 L 230.675781 553.898438 L 441.804688 553.898438 L 370.503906 677.28125 L 15.605469 677.28125 Z M 724.65625 556.570312 L 654.953125 677.265625 L 794.375 677.265625 Z M 724.65625 556.570312 " fill-opacity="1" fill-rule="nonzero"/></g><g clip-path="url(#678ebd445d)"><path fill="#e6e7e8" d="M 615.753906 368.257812 L 691.351562 499.164062 L 513.707031 806.71875 L 437.113281 677.523438 Z M 654.691406 185.855469 L 510.320312 185.855469 L 510.320312 185.773438 L 510.1875 185.367188 L 330.621094 496.117188 L 475.125 496.117188 Z M 654.691406 185.855469 " fill-opacity="1" fill-rule="nonzero"/></g><g fill="#e6e7e8" fill-opacity="1"><g transform="translate(454.175948, 483.293256)"><g><path d="M -45.78125 -61.578125 L 3.484375 -12 L 3.390625 -12.046875 C 4.097656 -11.242188 4.570312 -10.390625 4.8125 -9.484375 C 5.050781 -8.578125 4.945312 -7.6875 4.5 -6.8125 C 4.25 -6.34375 3.96875 -5.910156 3.65625 -5.515625 C 3.34375 -5.117188 3.003906 -4.71875 2.640625 -4.3125 L 2.6875 -4.40625 C -0.0820312 -1.601562 -2.585938 -1.328125 -4.828125 -3.578125 L -55.546875 -54.890625 C -56.328125 -55.671875 -56.851562 -56.59375 -57.125 -57.65625 C -57.394531 -58.71875 -57.332031 -59.785156 -56.9375 -60.859375 C -56.613281 -61.929688 -56.253906 -62.957031 -55.859375 -63.9375 C -55.460938 -64.925781 -55.128906 -65.6875 -54.859375 -66.21875 C -54.585938 -66.75 -54.164062 -67.457031 -53.59375 -68.34375 C -53.03125 -69.238281 -52.429688 -70.15625 -51.796875 -71.09375 C -51.253906 -71.863281 -50.398438 -72.445312 -49.234375 -72.84375 C -48.078125 -73.238281 -47.007812 -73.445312 -46.03125 -73.46875 C -34.25 -71.582031 -22.375 -69.703125 -10.40625 -67.828125 C 1.5625 -65.953125 13.429688 -64.070312 25.203125 -62.1875 C 28.316406 -61.632812 29.5625 -59.445312 28.9375 -55.625 C 28.820312 -55.09375 28.707031 -54.613281 28.59375 -54.1875 C 28.488281 -53.757812 28.316406 -53.3125 28.078125 -52.84375 C 27.648438 -52.007812 26.984375 -51.398438 26.078125 -51.015625 C 25.179688 -50.628906 24.21875 -50.515625 23.1875 -50.671875 L 23.28125 -50.625 Z M -2.265625 -47.625 C -0.378906 -46.65625 0.878906 -45.171875 1.515625 -43.171875 C 2.160156 -41.179688 2 -39.25 1.03125 -37.375 C 0.0703125 -35.5 -1.394531 -34.25 -3.375 -33.625 C -5.351562 -33 -7.285156 -33.171875 -9.171875 -34.140625 C -11.046875 -35.097656 -12.3125 -36.5625 -12.96875 -38.53125 C -13.625 -40.507812 -13.472656 -42.4375 -12.515625 -44.3125 C -11.546875 -46.1875 -10.0625 -47.445312 -8.0625 -48.09375 C -6.070312 -48.738281 -4.140625 -48.582031 -2.265625 -47.625 Z M -2.265625 -47.625 "/></g></g></g><g fill="#e6e7e8" fill-opacity="1"><g transform="translate(485.109821, 422.919607)"><g><path d="M -12.9375 -50.625 C -12.1875 -52.101562 -11.046875 -53.503906 -9.515625 -54.828125 C -7.992188 -56.148438 -6.359375 -57.289062 -4.609375 -58.25 L -4.640625 -58.15625 C -2.742188 -59.113281 -0.707031 -59.550781 1.46875 -59.46875 C 3.65625 -59.394531 5.984375 -58.722656 8.453125 -57.453125 L 11.09375 -56.109375 C 15.90625 -53.640625 18.640625 -50.234375 19.296875 -45.890625 C 19.691406 -43.765625 19.742188 -41.773438 19.453125 -39.921875 C 19.171875 -38.066406 18.640625 -36.375 17.859375 -34.84375 L 10.1875 -19.890625 C 9.40625 -18.367188 8.34375 -16.945312 7 -15.625 C 5.664062 -14.3125 4.019531 -13.191406 2.0625 -12.265625 C -1.78125 -10.242188 -6.132812 -10.484375 -11 -12.984375 L -12.0625 -13.515625 C -14.582031 -14.804688 -14.992188 -17.054688 -13.296875 -20.265625 C -11.609375 -23.546875 -9.53125 -24.550781 -7.0625 -23.28125 L -6.109375 -22.796875 C -4.691406 -22.078125 -3.144531 -21.835938 -1.46875 -22.078125 C 0.207031 -22.328125 1.617188 -23.566406 2.765625 -25.796875 L 8.71875 -37.40625 C 9.863281 -39.644531 10.046875 -41.519531 9.265625 -43.03125 C 8.484375 -44.539062 7.382812 -45.65625 5.96875 -46.375 L 3.515625 -47.640625 C 2.753906 -48.023438 1.96875 -48.296875 1.15625 -48.453125 C 0.351562 -48.609375 -0.441406 -48.59375 -1.234375 -48.40625 C -2.035156 -48.226562 -2.804688 -47.847656 -3.546875 -47.265625 C -4.296875 -46.679688 -4.957031 -45.832031 -5.53125 -44.71875 L -12.109375 -31.875 C -13.648438 -28.882812 -16.316406 -26.289062 -20.109375 -24.09375 C -23.691406 -22 -27.921875 -22.203125 -32.796875 -24.703125 L -35.78125 -26.234375 C -38.132812 -27.429688 -39.992188 -28.898438 -41.359375 -30.640625 C -42.722656 -32.378906 -43.570312 -34.296875 -43.90625 -36.390625 L -43.953125 -36.3125 C -44.203125 -38.28125 -44.226562 -40.25 -44.03125 -42.21875 C -43.84375 -44.1875 -43.351562 -45.9375 -42.5625 -47.46875 L -35.34375 -61.5625 C -34.570312 -63.082031 -33.445312 -64.484375 -31.96875 -65.765625 C -30.5 -67.046875 -28.875 -68.195312 -27.09375 -69.21875 L -27.125 -69.140625 C -25.238281 -70.085938 -23.191406 -70.507812 -20.984375 -70.40625 C -18.773438 -70.3125 -16.492188 -69.664062 -14.140625 -68.46875 L -13.359375 -68.0625 C -12.117188 -67.425781 -11.429688 -66.554688 -11.296875 -65.453125 C -11.171875 -64.347656 -11.476562 -62.988281 -12.21875 -61.375 C -13.8125 -58.113281 -15.84375 -57.117188 -18.3125 -58.390625 L -19 -58.734375 C -20.476562 -59.492188 -22.050781 -59.722656 -23.71875 -59.421875 C -25.382812 -59.128906 -26.769531 -57.898438 -27.875 -55.734375 L -33.46875 -44.828125 C -34.582031 -42.648438 -34.769531 -40.800781 -34.03125 -39.28125 C -33.300781 -37.757812 -32.195312 -36.617188 -30.71875 -35.859375 L -28.625 -34.796875 C -27.09375 -34.003906 -25.476562 -33.742188 -23.78125 -34.015625 C -22.082031 -34.296875 -20.675781 -35.523438 -19.5625 -37.703125 Z M -12.9375 -50.625 "/></g></g></g><g fill="#e6e7e8" fill-opacity="1"><g transform="translate(512.842088, 368.794535)"><g><path d="M -35.59375 -40.671875 L -3.5625 -24.25 C -2.039062 -23.476562 -0.703125 -23.207031 0.453125 -23.4375 C 1.609375 -23.664062 2.726562 -24.835938 3.8125 -26.953125 L 4.96875 -29.234375 C 6.144531 -31.523438 8.054688 -31.914062 10.703125 -30.40625 C 13.453125 -28.988281 14.269531 -27.195312 13.15625 -25.03125 L 11.671875 -22.125 C 10.710938 -20.25 9.5625 -18.617188 8.21875 -17.234375 C 6.875 -15.847656 5.34375 -14.632812 3.625 -13.59375 L 3.703125 -13.546875 C 0.359375 -11.628906 -3.710938 -11.90625 -8.515625 -14.375 L -40.640625 -30.828125 L -42.40625 -27.390625 C -43.488281 -25.285156 -45.441406 -24.878906 -48.265625 -26.171875 C -51.023438 -27.578125 -51.832031 -29.394531 -50.6875 -31.625 L -48.921875 -35.0625 L -58.328125 -39.890625 C -61.148438 -41.335938 -61.707031 -43.734375 -60 -47.078125 C -58.34375 -50.296875 -56.101562 -51.179688 -53.28125 -49.734375 L -43.875 -44.90625 L -40.125 -52.234375 C -38.957031 -54.515625 -37.023438 -54.894531 -34.328125 -53.375 C -31.566406 -51.957031 -30.738281 -50.164062 -31.84375 -48 Z M -35.59375 -40.671875 "/></g></g></g><g fill="#e6e7e8" fill-opacity="1"><g transform="translate(528.128644, 338.959759)"><g><path d="M -5.921875 -23.15625 C -4.503906 -22.4375 -2.945312 -22.210938 -1.25 -22.484375 C 0.4375 -22.753906 1.835938 -23.976562 2.953125 -26.15625 L 8.578125 -37.15625 C 9.691406 -39.320312 9.9375 -41.132812 9.3125 -42.59375 C 8.695312 -44.0625 7.6875 -45.15625 6.28125 -45.875 L 5.3125 -46.375 C 2.550781 -47.789062 2.003906 -50.117188 3.671875 -53.359375 C 5.316406 -56.585938 7.519531 -57.492188 10.28125 -56.078125 L 11.328125 -55.546875 C 13.796875 -54.273438 15.617188 -52.832031 16.796875 -51.21875 C 17.972656 -49.613281 18.742188 -47.722656 19.109375 -45.546875 C 19.742188 -41.285156 19.265625 -37.601562 17.671875 -34.5 L 10.109375 -19.71875 C 8.503906 -16.601562 5.835938 -14.15625 2.109375 -12.375 C 0.210938 -11.550781 -1.820312 -11.21875 -4 -11.375 C -6.175781 -11.53125 -8.4375 -12.210938 -10.78125 -13.421875 L -35.875 -26.265625 C -40.625 -28.703125 -43.394531 -31.976562 -44.1875 -36.09375 C -44.488281 -38.082031 -44.546875 -40.007812 -44.359375 -41.875 C -44.179688 -43.75 -43.710938 -45.425781 -42.953125 -46.90625 L -35.390625 -61.6875 C -34.660156 -63.09375 -33.582031 -64.503906 -32.15625 -65.921875 C -30.726562 -67.335938 -29.171875 -68.539062 -27.484375 -69.53125 C -25.765625 -70.425781 -23.804688 -70.847656 -21.609375 -70.796875 C -19.421875 -70.753906 -17.125 -70.117188 -14.71875 -68.890625 L -2.84375 -62.796875 C -1.488281 -62.109375 -0.488281 -61.09375 0.15625 -59.75 C 0.8125 -58.414062 0.597656 -56.691406 -0.484375 -54.578125 L -10.21875 -35.578125 C -11.300781 -33.460938 -13.253906 -33.050781 -16.078125 -34.34375 C -18.828125 -35.75 -19.628906 -37.570312 -18.484375 -39.8125 L -10.8125 -54.765625 L -19.0625 -58.875 C -20.53125 -59.625 -22.097656 -59.851562 -23.765625 -59.5625 C -25.429688 -59.269531 -26.820312 -58.039062 -27.9375 -55.875 L -33.5625 -44.875 C -34.675781 -42.695312 -34.863281 -40.847656 -34.125 -39.328125 C -33.382812 -37.804688 -32.28125 -36.671875 -30.8125 -35.921875 Z M -5.921875 -23.15625 "/></g></g></g><g fill="#e6e7e8" fill-opacity="1"><g transform="translate(555.545261, 285.45074)"><g><path d="M -12.515625 -41.953125 L 15.9375 -46.0625 C 16.738281 -46.164062 17.492188 -46.035156 18.203125 -45.671875 C 19.421875 -45.046875 20.195312 -43.539062 20.53125 -41.15625 C 20.71875 -39.644531 20.554688 -38.390625 20.046875 -37.390625 C 19.742188 -36.804688 19.226562 -36.3125 18.5 -35.90625 C 17.78125 -35.5 16.960938 -35.195312 16.046875 -35 L -7.125 -31.65625 C -6.332031 -30.132812 -5.46875 -28.484375 -4.53125 -26.703125 C -3.59375 -24.921875 -2.644531 -23.117188 -1.6875 -21.296875 C -0.738281 -19.484375 0.203125 -17.6875 1.140625 -15.90625 C 2.085938 -14.132812 2.953125 -12.488281 3.734375 -10.96875 C 4.628906 -9.101562 4.75 -7.53125 4.09375 -6.25 C 3.507812 -5.125 2.585938 -4.265625 1.328125 -3.671875 C 0.304688 -3.140625 -0.585938 -2.796875 -1.359375 -2.640625 C -2.140625 -2.484375 -2.882812 -2.585938 -3.59375 -2.953125 C -4.300781 -3.304688 -4.859375 -3.882812 -5.265625 -4.6875 L -18.640625 -30 C -22.859375 -29.414062 -27.285156 -28.789062 -31.921875 -28.125 C -36.554688 -27.46875 -41.015625 -26.867188 -45.296875 -26.328125 C -45.828125 -26.296875 -46.394531 -26.304688 -47 -26.359375 C -47.601562 -26.410156 -48.050781 -26.515625 -48.34375 -26.671875 C -49.570312 -27.296875 -50.289062 -28.703125 -50.5 -30.890625 L -50.546875 -30.78125 C -50.546875 -31.519531 -50.519531 -32.191406 -50.46875 -32.796875 C -50.414062 -33.398438 -50.269531 -33.9375 -50.03125 -34.40625 C -49.21875 -35.988281 -47.664062 -36.929688 -45.375 -37.234375 L -23.9375 -40.265625 L -34 -59.421875 C -35.070312 -61.515625 -35.210938 -63.328125 -34.421875 -64.859375 C -34.148438 -65.390625 -33.789062 -65.835938 -33.34375 -66.203125 C -32.90625 -66.566406 -32.390625 -66.96875 -31.796875 -67.40625 L -31.828125 -67.3125 C -29.898438 -68.476562 -28.320312 -68.75 -27.09375 -68.125 C -26.394531 -67.757812 -25.726562 -66.96875 -25.09375 -65.75 Z M -12.515625 -41.953125 "/></g></g></g></svg>